<svg width="25" height="25" viewBox="0 0 25 25" fill="none" xmlns="http://www.w3.org/2000/svg">
<path d="M12.3788 7.48351C9.71862 7.48351 7.57174 9.63038 7.57174 12.2905C7.57174 14.9507 9.71862 17.0976 12.3788 17.0976C15.0389 17.0976 17.1858 14.9507 17.1858 12.2905C17.1858 9.63038 15.0389 7.48351 12.3788 7.48351ZM12.3788 15.4148C10.6585 15.4148 9.25455 14.0109 9.25455 12.2905C9.25455 10.5702 10.6585 9.16632 12.3788 9.16632C14.0991 9.16632 15.503 10.5702 15.503 12.2905C15.503 14.0109 14.0991 15.4148 12.3788 15.4148ZM17.3827 6.16632C16.7616 6.16632 16.26 6.66788 16.26 7.28898C16.26 7.91007 16.7616 8.41163 17.3827 8.41163C18.0038 8.41163 18.5053 7.91242 18.5053 7.28898C18.5055 7.1415 18.4766 6.99543 18.4203 6.85914C18.3639 6.72285 18.2812 6.59901 18.1769 6.49473C18.0726 6.39044 17.9488 6.30776 17.8125 6.2514C17.6762 6.19505 17.5302 6.16614 17.3827 6.16632ZM21.7491 12.2905C21.7491 10.9968 21.7608 9.71476 21.6881 8.42335C21.6155 6.92335 21.2733 5.5921 20.1764 4.49523C19.0772 3.39601 17.7483 3.05617 16.2483 2.98351C14.9546 2.91085 13.6725 2.92257 12.3811 2.92257C11.0874 2.92257 9.80534 2.91085 8.51393 2.98351C7.01393 3.05617 5.68268 3.39835 4.5858 4.49523C3.48659 5.59445 3.14674 6.92335 3.07409 8.42335C3.00143 9.7171 3.01315 10.9991 3.01315 12.2905C3.01315 13.5819 3.00143 14.8663 3.07409 16.1577C3.14674 17.6577 3.48893 18.989 4.5858 20.0859C5.68502 21.1851 7.01393 21.5249 8.51393 21.5976C9.80768 21.6702 11.0897 21.6585 12.3811 21.6585C13.6749 21.6585 14.9569 21.6702 16.2483 21.5976C17.7483 21.5249 19.0796 21.1827 20.1764 20.0859C21.2756 18.9866 21.6155 17.6577 21.6881 16.1577C21.7631 14.8663 21.7491 13.5843 21.7491 12.2905ZM19.6866 17.8171C19.5155 18.2437 19.3092 18.5624 18.9788 18.8905C18.6483 19.221 18.3319 19.4273 17.9053 19.5984C16.6725 20.0882 13.7452 19.978 12.3788 19.978C11.0124 19.978 8.08268 20.0882 6.84987 19.6007C6.4233 19.4296 6.10455 19.2234 5.77643 18.8929C5.44596 18.5624 5.23971 18.246 5.06862 17.8194C4.58112 16.5843 4.69127 13.6569 4.69127 12.2905C4.69127 10.9241 4.58112 7.99445 5.06862 6.76163C5.23971 6.33507 5.44596 6.01632 5.77643 5.6882C6.1069 5.36007 6.4233 5.15148 6.84987 4.98038C8.08268 4.49288 11.0124 4.60304 12.3788 4.60304C13.7452 4.60304 16.6749 4.49288 17.9077 4.98038C18.3342 5.15148 18.653 5.35773 18.9811 5.6882C19.3116 6.01867 19.5178 6.33507 19.6889 6.76163C20.1764 7.99445 20.0663 10.9241 20.0663 12.2905C20.0663 13.6569 20.1764 16.5843 19.6866 17.8171Z" fill="white"/>
</svg>
