<svg width="21" height="18" viewBox="0 0 21 18" fill="none" xmlns="http://www.w3.org/2000/svg">
<path d="M18.9315 0.287764C18.6796 0.299483 18.4423 0.372725 18.2313 0.454756H18.2284C18.0145 0.539717 16.9979 0.967451 15.454 1.61491C13.91 2.2653 11.9061 3.10905 9.91688 3.94694C5.94423 5.61979 2.03895 7.26628 2.03895 7.26628L2.08583 7.2487C2.08583 7.2487 1.8163 7.33659 1.53505 7.52995C1.39149 7.6237 1.23329 7.75261 1.09559 7.95476C0.957898 8.1569 0.84657 8.46745 0.887586 8.78679C0.954969 9.32878 1.30653 9.65397 1.55848 9.83269C1.81337 10.0143 2.05653 10.0993 2.05653 10.0993H2.06239L5.7245 11.3327C5.88856 11.86 6.84071 14.9889 7.06923 15.7096C7.20399 16.1403 7.33583 16.4098 7.49989 16.6149C7.57899 16.7204 7.67274 16.8083 7.78407 16.8786C7.82802 16.905 7.87489 16.9255 7.92177 16.943C7.93641 16.9518 7.95106 16.9548 7.96864 16.9577L7.93055 16.9489C7.94227 16.9518 7.95106 16.9606 7.95985 16.9635C7.98915 16.9723 8.00966 16.9753 8.04774 16.9811C8.62782 17.1569 9.09364 16.7966 9.09364 16.7966L9.12001 16.776L11.2821 14.8073L14.9061 17.5876L14.9882 17.6227C15.744 17.9538 16.5087 17.7692 16.913 17.444C17.3202 17.1159 17.4784 16.6969 17.4784 16.6969L17.5048 16.6296L20.3056 2.28288C20.3847 1.92839 20.4052 1.59733 20.3173 1.27507C20.2294 0.952803 20.0038 0.651045 19.7313 0.489912C19.4559 0.32585 19.1835 0.276045 18.9315 0.287764ZM18.8554 1.82585C18.8524 1.87272 18.8612 1.86687 18.8407 1.95769V1.96647L16.0663 16.1637C16.0546 16.1842 16.0341 16.2282 15.9784 16.2721C15.9198 16.319 15.8729 16.3483 15.6298 16.2516L11.1972 12.8532L8.51942 15.2936L9.08192 11.7018C9.08192 11.7018 16.0253 5.23015 16.3241 4.95183C16.6229 4.67351 16.5233 4.61491 16.5233 4.61491C16.5438 4.27507 16.0722 4.5153 16.0722 4.5153L6.94032 10.1725L6.93739 10.1579L2.56044 8.68425V8.68132C2.55751 8.68132 2.55165 8.67839 2.54872 8.67839C2.55165 8.67839 2.57216 8.6696 2.57216 8.6696L2.59559 8.65788L2.61903 8.64909C2.61903 8.64909 6.52723 7.00261 10.4999 5.32976C12.4891 4.49187 14.4931 3.64812 16.0341 2.99772C17.5751 2.35026 18.7147 1.87565 18.7792 1.84929C18.8407 1.82585 18.8114 1.82585 18.8554 1.82585Z" fill="white"/>
</svg>
