<svg width="25" height="25" viewBox="0 0 25 25" fill="none" xmlns="http://www.w3.org/2000/svg">
<path d="M22.8788 12.225C22.8788 12.1734 22.8788 12.1148 22.8764 12.0469C22.8741 11.857 22.8694 11.6438 22.8647 11.4164C22.846 10.7625 22.8132 10.1109 22.7616 9.49687C22.6913 8.65078 22.5882 7.94531 22.4475 7.41562C22.2991 6.86285 22.0082 6.35871 21.604 5.95359C21.1996 5.54846 20.6961 5.25655 20.1436 5.10703C19.4803 4.92891 18.1819 4.81875 16.3538 4.75078C15.4843 4.71797 14.5538 4.69687 13.6233 4.68516C13.2975 4.68047 12.9952 4.67813 12.7233 4.67578H12.0343C11.7624 4.67813 11.46 4.68047 11.1343 4.68516C10.2038 4.69687 9.27332 4.71797 8.40378 4.75078C6.57566 4.82109 5.27488 4.93125 4.61394 5.10703C4.06129 5.25619 3.55754 5.54797 3.15318 5.95315C2.74883 6.35833 2.45807 6.86267 2.31003 7.41562C2.16707 7.94531 2.06628 8.65078 1.99597 9.49687C1.94441 10.1109 1.9116 10.7625 1.89285 11.4164C1.88582 11.6438 1.88347 11.857 1.88113 12.0469C1.88113 12.1148 1.87878 12.1734 1.87878 12.225V12.3562C1.87878 12.4078 1.87878 12.4664 1.88113 12.5344C1.88347 12.7242 1.88816 12.9375 1.89285 13.1648C1.9116 13.8187 1.94441 14.4703 1.99597 15.0844C2.06628 15.9305 2.16941 16.6359 2.31003 17.1656C2.61003 18.2883 3.49128 19.1742 4.61394 19.4742C5.27488 19.6523 6.57566 19.7625 8.40378 19.8305C9.27332 19.8633 10.2038 19.8844 11.1343 19.8961C11.46 19.9008 11.7624 19.9031 12.0343 19.9055H12.7233C12.9952 19.9031 13.2975 19.9008 13.6233 19.8961C14.5538 19.8844 15.4843 19.8633 16.3538 19.8305C18.1819 19.7602 19.4827 19.65 20.1436 19.4742C21.2663 19.1742 22.1475 18.2906 22.4475 17.1656C22.5905 16.6359 22.6913 15.9305 22.7616 15.0844C22.8132 14.4703 22.846 13.8187 22.8647 13.1648C22.8718 12.9375 22.8741 12.7242 22.8764 12.5344C22.8764 12.4664 22.8788 12.4078 22.8788 12.3562V12.225ZM21.1913 12.3469C21.1913 12.3961 21.1913 12.45 21.1889 12.5133C21.1866 12.6961 21.1819 12.8977 21.1772 13.1156C21.1608 13.7391 21.128 14.3625 21.0788 14.9414C21.0155 15.6961 20.9264 16.3148 20.8163 16.7297C20.671 17.2711 20.2444 17.7 19.7053 17.843C19.2132 17.9742 17.9733 18.0797 16.2882 18.143C15.435 18.1758 14.5163 18.1969 13.5999 18.2086C13.2788 18.2133 12.9811 18.2156 12.7139 18.2156H12.0436L11.1577 18.2086C10.2413 18.1969 9.32488 18.1758 8.46941 18.143C6.78425 18.0773 5.54207 17.9742 5.05222 17.843C4.51316 17.6977 4.0866 17.2711 3.94128 16.7297C3.83113 16.3148 3.74207 15.6961 3.67878 14.9414C3.62957 14.3625 3.5991 13.7391 3.58035 13.1156C3.57332 12.8977 3.57097 12.6937 3.56863 12.5133C3.56863 12.45 3.56628 12.3938 3.56628 12.3469V12.2344C3.56628 12.1852 3.56628 12.1312 3.56863 12.068C3.57097 11.8852 3.57566 11.6836 3.58035 11.4656C3.59675 10.8422 3.62957 10.2187 3.67878 9.63984C3.74207 8.88516 3.83113 8.26641 3.94128 7.85156C4.0866 7.31016 4.51316 6.88125 5.05222 6.73828C5.54441 6.60703 6.78425 6.50156 8.46941 6.43828C9.32253 6.40547 10.2413 6.38437 11.1577 6.37266C11.4788 6.36797 11.7764 6.36563 12.0436 6.36563H12.7139L13.5999 6.37266C14.5163 6.38437 15.4327 6.40547 16.2882 6.43828C17.9733 6.50391 19.2155 6.60703 19.7053 6.73828C20.2444 6.88359 20.671 7.31016 20.8163 7.85156C20.9264 8.26641 21.0155 8.88516 21.0788 9.63984C21.128 10.2187 21.1585 10.8422 21.1772 11.4656C21.1843 11.6836 21.1866 11.8875 21.1889 12.068C21.1889 12.1312 21.1913 12.1875 21.1913 12.2344V12.3469ZM10.2928 15.4312L15.7303 12.2672L10.2928 9.15V15.4312Z" fill="white"/>
</svg>
